<!DOCTYPE svg PUBLIC "-//W3C//DTD SVG 1.1//EN" "http://www.w3.org/Graphics/SVG/1.1/DTD/svg11.dtd">

<!-- Uploaded to: SVG Repo, www.svgrepo.com, Transformed by: SVG Repo Mixer Tools -->
<svg fill="#ee5ab5" width="150" height="150px" viewBox="-1.92 -1.92 35.84 35.84" style="fill-rule:evenodd;clip-rule:evenodd;stroke-linejoin:round;stroke-miterlimit:2;" version="1.1" xml:space="preserve" xmlns="http://www.w3.org/2000/svg" xmlns:serif="http://www.serif.com/" xmlns:xlink="http://www.w3.org/1999/xlink" stroke="#ee5ab5">

<g id="SVGRepo_bgCarrier" stroke-width="0"/>

<g id="SVGRepo_tracerCarrier" stroke-linecap="round" stroke-linejoin="round"/>

<g id="SVGRepo_iconCarrier">

<path d="M23.687,6.888l-2.595,-2.595c-0.39,-0.39 -1.023,-0.39 -1.414,-0c-0.39,0.39 -0.39,1.024 0,1.414l2.595,2.595l-1.922,1.922c-1.726,-1.416 -3.933,-2.266 -6.337,-2.266c-5.519,0 -10,4.481 -10,10c-0,5.519 4.481,10 10,10c5.519,0 10,-4.481 10,-10c-0,-2.395 -0.844,-4.595 -2.251,-6.318l1.924,-1.924l2.595,2.595c0.391,0.391 1.024,0.391 1.415,0c0.39,-0.39 0.39,-1.024 -0,-1.414l-2.595,-2.595l2.595,-2.595c0.39,-0.39 0.39,-1.024 -0,-1.414c-0.391,-0.39 -1.024,-0.39 -1.415,-0l-2.595,2.595Zm-9.673,3.07c4.415,0 8,3.585 8,8c-0,4.415 -3.585,8 -8,8c-4.415,0 -8,-3.585 -8,-8c-0,-4.415 3.585,-8 8,-8Z"/>

</g>

</svg>