<svg xmlns="http://www.w3.org/2000/svg" viewBox="0 0 163.7 351.88"><defs><style>.cls-1{fill:#012e58;}.cls-2{fill:#02213a;}.cls-3{fill:#ffa288;}.cls-4{fill:#638096;}.cls-5{fill:#4a697c;}.cls-6{fill:#5ca3e5;}.cls-7{fill:#7992a8;}.cls-8{fill:#94a6ba;}.cls-9{fill:#aabccc;}.cls-10{fill:#ff7a71;}.cls-11{fill:#337aaf;}.cls-12{fill:#0d548e;}.cls-13{fill:#fe596a;}.cls-14{fill:#fe7688;}.cls-15{fill:#fff;}</style></defs><g id="TEXTS"><path class="cls-1" d="M108.64,78c1-.44,18.51-3.59,21.07-27.12s-11-29.53-16.57-28.54c0,0-4.13-10.66-7.48-10.31S103.09,17,103.09,17,84,4.06,78.41,7s.07,10.74.07,10.74-7.24-4.09-9.77-.37S73.08,28,73.08,28s-6,37.24,9.5,45.22S108.64,78,108.64,78Z"/><path class="cls-2" d="M68.71,17a4.4,4.4,0,0,1,.4-.46A24.11,24.11,0,0,0,100.8,28.06c.31,1.7,2.29,2.7,4,2.43A7.23,7.23,0,0,0,109,27.7a31.21,31.21,0,0,0,7.74,7.38c2.25,1.51,5.12,2.74,7.59,1.64a7,7,0,0,0,3.12-3.21c.14-.27.27-.55.4-.82,1.78,4.31,2.68,10.13,1.84,17.84-2.56,23.53-20.1,26.68-21.07,27.12,0,0-10.62,3.18-26.06-4.81s-9.5-45.22-9.5-45.22S66.19,20.68,68.71,17Z"/><path class="cls-1" d="M132.78,335.38c2.15,1.9,2.63,10,.48,12.63s-24.8,1.43-28.37,1S103,337,119,337.28l7.15-3.1Z"/><path class="cls-3" d="M133.26,313.44c.35,3.71.72,18.12-.48,21.94s-12.39,5-13.82,1.9-4.53-19.55-4.53-22.41S133.26,313.44,133.26,313.44Z"/><path class="cls-1" d="M81.76,335.38c2.15,1.9,2.62,10,.48,12.63s-24.8,1.43-28.38,1S52,337,67.93,337.28l7.15-3.1Z"/><path class="cls-3" d="M83,314.16c.35,3.71,0,17.4-1.19,21.22s-12.4,5-13.83,1.9-3.1-20-3.1-22.89S83,314.16,83,314.16Z"/><path class="cls-1" d="M128.1,182.62c.39,1.35,5.16,61.91,6.35,82.66s1.64,44.15.48,49.83-19.55,5-21,3.81-21-96.56-21-96.56-7.26,92.94-8.83,96.8S65.79,322.5,63.4,318s-4.77-110-3.34-136.3c0,0,29.09-6.28,29.57-7s27.18,1.91,28.13,1.67S128.1,182.62,128.1,182.62Z"/><path class="cls-4" d="M21.84,51.25c-1.51-.16-7.68-1.37-10.42-.8-1.51.32-9.29,3.9-10.65,14.78s3.5,15,4.06,15.5,8.42,2,8.42,2L18.74,57Z"/><path class="cls-5" d="M28.27,60s-.23-7.52-6.43-8.74C15,49.9,7,56.72,6.66,67.54c-.3,8.87,4.45,14.7,6.59,15.18a9.9,9.9,0,0,0,7.47-1.83c2-1.35,4.14-14.46,4.14-14.46Z"/><path class="cls-4" d="M22.79,62.53a54.65,54.65,0,0,0-5.8-.32c-3.5,0-4.53,7.48-1.91,8.11a41.81,41.81,0,0,0,7.71.8Z"/><path class="cls-3" d="M74.21,88c-4.21.72-12.12,1.4-16.85,5.57-6,5.28-18.12,16.21-18.12,16.21s-9-12.9-9.73-24.88c-.16-2.78-2-5.8-2.11-7.63s2-17.56,2-17.56-5-1.43-6.92-1-5.64,3.57-6.67,6.91.71,10.29.95,12-.24,22.81,3.89,36.64,6.84,19.63,8.83,21.38,7.78,2.38,10.09,1.59,25-15.1,25-15.1,10.65.48,10.89.56,2.15-27.5,2.15-27.5Z"/><path class="cls-3" d="M127.94,126.19s11.6,6.52,13,14.47,8.27,7.15,8.74,7.63,13.36-6.52,13.36-6.52c1.58-12.72-17.33-37.19-21.15-42.6s-13.79-9.12-17-9.85-7.16,6-7.16,6-3.49,18.91-3.33,19.55,2.86,7,3.65,7.47S127.94,126.19,127.94,126.19Z"/><path class="cls-6" d="M115.86,86.57c3.49,0,9.06,2.75,9.06,2.75s-1,14.78-1.59,21.93,4.61,14.94,4.61,14.94-.48,51.66.16,56.43c0,0-49.76,11.13-68-1,0,0,3.34-48.17,4.45-59.45,0,0,3.82-2.23,5.89-11.13s3.81-23,3.81-23a71.44,71.44,0,0,1,8.62-1.35s19.2.24,19.67.4S115.86,86.57,115.86,86.57Z"/><path class="cls-3" d="M107.36,73.26s1,9.38,1.66,10.81,6.84,2.5,6.84,2.5S112,104,97.74,104.22,82.83,86.69,82.83,86.69,87,85.58,88.2,83.91,90.34,73.7,90.34,73.7Z"/><path class="cls-4" d="M49.56,53.53C47.41,52.92,40.19,51.3,36.8,52c0,0-8.61,3.35-10,14.67s1.13,16.88,2.72,18.29,14,3,14,3Z"/><path class="cls-7" d="M49.56,53.53c9.36,2.06,11.19,26.81,0,33S31.61,78.38,34.32,69,42.13,51.9,49.56,53.53Z"/><path class="cls-8" d="M50.89,60A19.91,19.91,0,0,0,47,59.11a3.35,3.35,0,0,0-2.7.79A16.57,16.57,0,0,0,38.53,71c-.63,7.21,1.9,9.22,3,10.51a2.48,2.48,0,0,0,1.58.83,31.82,31.82,0,0,0,4.44.32Z"/><path class="cls-9" d="M50.89,60c6.14,1.35,7.35,17.61,0,21.64s-11.76-5.32-10-11.49S46,59,50.89,60Z"/><path class="cls-7" d="M47.19,70.73a2.61,2.61,0,0,1,.14-1.35A2.89,2.89,0,0,1,48,68.3a1.63,1.63,0,0,1,2.89.94A6.24,6.24,0,0,1,51,70.46a5.87,5.87,0,0,1-.36,2.16,2.25,2.25,0,0,1-.93,1.23,1.68,1.68,0,0,1-1.94-.23,2.33,2.33,0,0,1-.69-2C47.12,71.33,47.15,71,47.19,70.73Z"/><path class="cls-10" d="M90.34,73.7l17-.44s1,9.38,1.66,10.81a1.47,1.47,0,0,0,.51.52,37.3,37.3,0,0,1-11.4.48A23.46,23.46,0,0,1,89,82,72.66,72.66,0,0,0,90.34,73.7Z"/><path class="cls-3" d="M78,45.35c-2.45,9.19-1,35.39,16,36.77,18,1.48,22.91-16.22,22.91-16.22a6.94,6.94,0,0,0,7.39-8.64c-1.17-5-6.48-2.1-6.48-2.1s-7-5.6-8.13-14.43c0,0-15.36,2.52-22-4.67C87.58,36.06,83.22,44.06,78,45.35Z"/><path class="cls-10" d="M117.45,62c0-.05,0-.09,0,0h0s0,.05,0,.07a.22.22,0,0,1,0-.06,2.17,2.17,0,0,0,0,.25,1.93,1.93,0,0,0,.89,1.27,1.7,1.7,0,0,0,2.29-.49,2,2,0,0,0,.16-1.72,4.29,4.29,0,0,0-.94-1.33.83.83,0,0,0-.15-.11l.22-.24.34-.31,0,0,0,0,.16-.12a6,6,0,0,1,1.55-.7.5.5,0,0,0-.13-1,4.1,4.1,0,0,0-2.45.77A5.59,5.59,0,0,0,117.88,60a3.28,3.28,0,0,0-.41,1.05,2.5,2.5,0,0,0-.06.67A1.86,1.86,0,0,0,117.45,62Z"/><path class="cls-10" d="M77.73,46.33c.08-.36.16-.7.24-1C83.22,44,87.58,36,87.58,36c6.67,7.19,22,4.67,22,4.67.91,6.92,5.37,11.84,7.27,13.65A15.21,15.21,0,0,1,109,48.9a11.11,11.11,0,0,0-2.44-2.83,7.33,7.33,0,0,0-2-.87,54.11,54.11,0,0,0-15.87-2.68,5.59,5.59,0,0,0-1.73.16,6.78,6.78,0,0,0-1.67.91,16.45,16.45,0,0,1-5.42,2.48A10.19,10.19,0,0,1,77.73,46.33Z"/><path class="cls-6" d="M69.46,38.5c1.12-2.44,4.57-2.6,6.69-3s4.28-.7,6.44-.91A67.33,67.33,0,0,1,119,41.73a48.64,48.64,0,0,1,6.38,4.1c1.92,1.41,4.22,2.9,5.6,5.05.94,1.46,0,3.72-1.73,3.15-1.93-.66-3.67-2.1-5.45-3.16a55.62,55.62,0,0,0-5.11-2.71,86.73,86.73,0,0,0-11.2-4.6,57.59,57.59,0,0,0-23.14-2.22,55.18,55.18,0,0,0-6.21,1.06c-1.06.24-2.11.51-3.16.81-1.63.46-3.11,1.14-4.65-.05A3.8,3.8,0,0,1,69.46,38.5Z"/><path class="cls-10" d="M23.06,64a9.25,9.25,0,0,1,.47-.88,9.77,9.77,0,0,1,1.19-1.6,9.31,9.31,0,0,1,1.48-1.32,6.84,6.84,0,0,1,.8-.52c.25-.13.57-.23.7-.5s.84-.11.69.29c-.22.61-.88.89-1.39,1.24a9.25,9.25,0,0,0-2.63,2.8c-.16.27-.31.56-.45.85a2,2,0,0,1-.55.89.37.37,0,0,1-.54-.22A1.57,1.57,0,0,1,23.06,64Z"/><path class="cls-10" d="M19.35,63.66c.16-.3.32-.59.5-.88a12.65,12.65,0,0,1,2.75-3.05,8,8,0,0,1,1.74-1.15.35.35,0,0,1,.36.61c-.51.39-1.05.74-1.54,1.16a13.06,13.06,0,0,0-2.5,3q-.26.4-.48.84a2.31,2.31,0,0,1-.58.83c-.26.19-.55-.07-.57-.32A1.91,1.91,0,0,1,19.35,63.66Z"/><path class="cls-10" d="M36.71,106.1a8.82,8.82,0,0,1,1.41,2.09c.47.78,1,1.57,1.45,2.34s1,1.47,1.48,2.22A5.34,5.34,0,0,1,42.23,115a.2.2,0,0,1-.29.17c-.71-.34-1.14-1.26-1.55-1.9s-1-1.57-1.41-2.36-.89-1.54-1.32-2.32a7.64,7.64,0,0,1-1.08-2.38A.08.08,0,0,1,36.71,106.1Z"/><path class="cls-11" d="M82.35,87.08c.14-.52,1-.59,1.13,0,.34,2,.24,3.92.85,5.88a15.45,15.45,0,0,0,3.06,5.54,14.61,14.61,0,0,0,11.39,5,15.59,15.59,0,0,0,11-5.48,27.54,27.54,0,0,0,3.6-5.09,20,20,0,0,0,1.58-3.34,8,8,0,0,1,.82-2.49.07.07,0,0,1,.11,0c.88,1.29-.31,3.65-.88,4.89a29.6,29.6,0,0,1-2.82,4.8,19.87,19.87,0,0,1-7.87,6.79,15.89,15.89,0,0,1-18.82-5.22A17.06,17.06,0,0,1,82.85,93C82.32,91.21,81.83,88.9,82.35,87.08Z"/><path class="cls-11" d="M123.4,99.64c.41-3.41.68-6.91,1.39-10.27a.4.4,0,0,1,.78.1c-.18,6.67-1.65,13.25-1.7,20-.05,6.1,1.09,12.33,4.86,17.28.5.66-.61,1.3-1.11.65-3.74-4.92-5-11.15-5-17.22A81.9,81.9,0,0,1,123.4,99.64Z"/><path class="cls-11" d="M64.75,120.94c.43-.58.84-1.18,1.22-1.8a32.6,32.6,0,0,0,2-3.83,47.5,47.5,0,0,0,2.72-8.39c.67-2.83,1.23-5.68,1.75-8.54.32-1.68.61-3.36.87-5s.3-3.39.63-5c.09-.47.72-.29.77.11.44,3.33-.49,7-1.07,10.32-.53,3.06-1.06,6.14-1.82,9.15a47.5,47.5,0,0,1-2.91,8.46,28.44,28.44,0,0,1-2.1,3.78c-.55.82-1.35,2.48-2.43,2.54a.32.32,0,0,1-.31-.31C64,121.68,64.35,121.48,64.75,120.94Z"/><path class="cls-11" d="M71.27,147.49c1.18,1.22,2.46,2.32,3.66,3.52a29.59,29.59,0,0,0,4.14,3.35A35.33,35.33,0,0,0,88.7,159a32.51,32.51,0,0,0,20.89-.76,31.84,31.84,0,0,0,5.31-2.52c1.69-1,3.16-2.33,4.85-3.33a.24.24,0,0,1,.32.33c-1.69,3-5.33,5.43-8.34,7A30.57,30.57,0,0,1,100.84,163a35.44,35.44,0,0,1-22.61-5.59,33.33,33.33,0,0,1-5.15-4,7.72,7.72,0,0,1-2.69-5.59A.52.52,0,0,1,71.27,147.49Z"/><path class="cls-11" d="M67.3,154.86a12,12,0,0,1,1.91,2,18.8,18.8,0,0,0,2,2,16.46,16.46,0,0,0,2.22,1.69c.41.25.83.49,1.25.73s.8.51,1.22.71c.15.08.08.34-.08.32a9.23,9.23,0,0,1-1.49-.22,9.6,9.6,0,0,1-1.36-.49,13.23,13.23,0,0,1-2.71-1.6A12.27,12.27,0,0,1,68,158a5.13,5.13,0,0,1-1.26-2.79A.36.36,0,0,1,67.3,154.86Z"/><path class="cls-11" d="M60.36,181.69A36.37,36.37,0,0,0,72,185.46a107.26,107.26,0,0,0,13.62,1.39,143,143,0,0,0,27.41-1.8c2.5-.39,5-.83,7.49-1.3s4.88-1.13,7.34-1.43c.52-.06.56.71.12.87a56.08,56.08,0,0,1-6.91,1.67c-2.32.5-4.64,1-7,1.36-4.5.76-9.05,1.41-13.6,1.81a113.71,113.71,0,0,1-27.77-.77c-4.47-.71-9.6-1.52-13.19-4.53C59,182.23,59.73,181.34,60.36,181.69Z"/><path class="cls-3" d="M163.07,141.77,141,140.66s-7.95,18.6-17.17,26.23c-1.21,1-7-3.34-8.74-2.55s.64,3.34,2.07,4.77c0,0-8.9-.64-10.33.16s-.8,1.75.63,2.38a65.77,65.77,0,0,0,7.63,1.75s-7.47.8-8.9,1.11-1.11,2.39.64,3,8.1-.15,8.1-.15-5.88,1-7,2.22-.64,2.23,1.27,2.07,7.63-1.11,7.63-1.11-5.25,1.9-5.72,2.86.32,2.06,1.91,1.74,8.42-1.74,12.39-3,15.06-10.54,23.21-16.69C160.2,156.71,163.07,141.77,163.07,141.77Z"/><path class="cls-10" d="M114.55,165.65a.15.15,0,0,1,.24-.1,3.44,3.44,0,0,1,.27.27,2.47,2.47,0,0,1,.19.36,7.23,7.23,0,0,0,.4.66,7.8,7.8,0,0,0,1,1.2,6.67,6.67,0,0,0,1.23.94c.23.14.47.26.71.38a2.46,2.46,0,0,1,.68.36.16.16,0,0,1-.11.26,1.61,1.61,0,0,1-.82-.2c-.24-.11-.49-.23-.72-.36a7.75,7.75,0,0,1-1.36-1,7.44,7.44,0,0,1-1.11-1.27,7,7,0,0,1-.41-.69,2.1,2.1,0,0,1-.18-.37A1.14,1.14,0,0,1,114.55,165.65Z"/><path class="cls-10" d="M106.14,170.5a8,8,0,0,0,2.15,1.26,20.53,20.53,0,0,0,2.6.48l2.76.44a18,18,0,0,1,2.84.51.2.2,0,0,1,0,.4,19.57,19.57,0,0,1-2.94-.39l-3.17-.48c-1.51-.22-3.76-.39-4.42-2.05A.16.16,0,0,1,106.14,170.5Z"/><path class="cls-10" d="M105.43,176.7c.33-.09.59.09.89.2a6.5,6.5,0,0,0,1.13.3,15.37,15.37,0,0,0,2.44.22q1.24,0,2.49-.06c.42,0,.83-.06,1.25-.11s.77-.19,1.09,0a.08.08,0,0,1,0,.1c-.21.28-.55.29-.88.35s-.87.13-1.31.18a20.83,20.83,0,0,1-2.85.1,15.75,15.75,0,0,1-2.57-.24c-.54-.1-1.63-.26-1.81-.88A.14.14,0,0,1,105.43,176.7Z"/><path class="cls-10" d="M107.53,181.12c.39.06.77.19,1.16.22a6.8,6.8,0,0,0,1,0q1.42-.11,2.82-.3c.91-.12,1.82-.28,2.72-.46.14,0,1.63-.44,1.59-.09s-.27.29-.49.36c-.5.13-1,.23-1.49.33q-1.41.29-2.82.48c-.92.12-1.84.24-2.76.27-.68,0-1.49,0-1.88-.61A.13.13,0,0,1,107.53,181.12Z"/><path class="cls-2" d="M87.48,211.42a17,17,0,0,1,1.7.58,5.6,5.6,0,0,0,1.81.31l.3,0a.76.76,0,0,1,0-.15c0-.08.13-.14.17,0a1.27,1.27,0,0,1,.06.18,8.45,8.45,0,0,0,2.93-.94c.31-.16.78.19.52.52a4.68,4.68,0,0,1-3,1.67c.41,1.44.62,3,.92,4.42.4,2,.77,3.94,1.18,5.91s.82,3.93,1.25,5.89a35.29,35.29,0,0,1,1.08,6c0,.26-.41.39-.52.14a28.9,28.9,0,0,1-1.72-5.85c-.43-2-.86-3.93-1.24-5.9s-.76-4-1.06-5.94a43.17,43.17,0,0,1-.61-4.62H91c-1.38,0-3.26-.34-3.92-1.7A.33.33,0,0,1,87.48,211.42Z"/><path class="cls-2" d="M114.21,189.28a.5.5,0,0,0,0-.12c-.06-.3.26-.61.54-.42l.13.08c.48-.09.94.32,1.23.68a13.13,13.13,0,0,0,1.09,1.15,15.31,15.31,0,0,0,2.43,1.88,12.11,12.11,0,0,0,2.75,1.29,15.35,15.35,0,0,0,1.51.43,1.72,1.72,0,0,1,1.13.55.11.11,0,0,1,0,.12,1.5,1.5,0,0,1-1.33.34,10,10,0,0,1-1.63-.2,14.15,14.15,0,0,1-3.25-1.1,11.8,11.8,0,0,1-2.83-1.85C115.35,191.59,113.65,190.2,114.21,189.28Z"/><path class="cls-2" d="M61.35,195.73a1,1,0,0,1,.18-.35.39.39,0,0,1,.17-.09,1.58,1.58,0,0,1,.31-.09,4.57,4.57,0,0,1,.66-.18c.55-.1,1.11-.19,1.65-.34a13.68,13.68,0,0,0,3.09-1.21,12.55,12.55,0,0,0,2.66-1.91c.41-.39.8-.79,1.17-1.21.18-.2.33-.43.51-.61a5.51,5.51,0,0,1,.67-.44c.06-.06.15,0,.14.08a3.43,3.43,0,0,1-.07.78,4.78,4.78,0,0,1-.4.74,11.07,11.07,0,0,1-1,1.41,14.26,14.26,0,0,1-2.72,2.43,13,13,0,0,1-3.23,1.6c-1.1.36-2.57.88-3.57.08A.68.68,0,0,1,61.35,195.73Z"/><path class="cls-12" d="M114.5,313c.65-.44,1.45-.19,2.19-.14,1,.07,1.89.1,2.84.1a40.72,40.72,0,0,0,5.29-.32,44,44,0,0,0,5.44-1.08,18.38,18.38,0,0,0,2-.66.55.55,0,0,1-.7-.53c-.13-32.7-2.89-65.31-5-97.92-.59-9.1-1.3-18.29-1.17-27.41a.17.17,0,0,1,.34,0c.88,8.12,1.25,16.33,1.77,24.48s1.1,16.31,1.66,24.46c1.13,16.31,2.24,32.62,2.91,49,.37,9.14.61,18.29.64,27.44a.49.49,0,0,1-.26.46,25.35,25.35,0,0,0,2.39-1.11s.1,0,.08.07c-.44,1.28-2,1.79-3.15,2.2a37,37,0,0,1-6,1.53,40.07,40.07,0,0,1-5.79.53c-1.07,0-2.15,0-3.22-.1-.76-.06-1.69,0-2.24-.58A.24.24,0,0,1,114.5,313Z"/><path class="cls-12" d="M64.17,313.87a26.4,26.4,0,0,0,5.08,1c1.72.23,3.45.4,5.18.53a43.54,43.54,0,0,0,4.84.21,12.5,12.5,0,0,0,2-.24,6.27,6.27,0,0,0,1.21-.37c.21-.09.72-.5,1-.36a0,0,0,0,0,.07,0l0-.25c.14-.27-.09-.7-.43-.57l-.46.16a15,15,0,0,0,.73-4.54c.16-1.76.31-3.52.45-5.29.28-3.68.5-7.38.69-11.07.65-13,.87-26,1.91-39,.51-6.42,1.34-12.78,2.18-19.15s1.93-12.9,1-19.21c0-.15-.24-.1-.25,0-.16,3.7-.27,7.37-.72,11s-1.09,7.23-1.64,10.84c-1.93,12.71-2.58,25.53-3.08,38.36-.26,6.5-.48,13-.84,19.52q-.25,4.82-.64,9.62c-.12,1.61-.26,3.21-.42,4.81a12.58,12.58,0,0,0-.11,4.28c-2.52.67-5.13.35-7.73.11-1.62-.15-3.24-.3-4.85-.53s-3.28-.66-4.93-.94A.56.56,0,0,0,64.17,313.87Z"/><path class="cls-12" d="M113.77,337.51a.91.91,0,0,1,1.11-1.08,1.83,1.83,0,0,1,.68.31,5,5,0,0,1,.64.57,14.36,14.36,0,0,1,2.39,3.52,1.93,1.93,0,0,1,0,1.81,1.12,1.12,0,0,1-1.79-.06,6,6,0,0,1-.81-1.26c-.22-.39-.45-.78-.69-1.15s-.53-.78-.8-1.18c-.13-.21-.29-.4-.42-.61s-.12-.21-.18-.31a2.52,2.52,0,0,1-.12-.29l0-.18v-.09Z"/><path class="cls-12" d="M113.19,342.28v0C113.2,342.3,113.2,342.3,113.19,342.28Z"/><path class="cls-12" d="M109.77,338.24c.46,0,.9.43,1.2.72a8.31,8.31,0,0,1,.92,1.12l.76,1a3.81,3.81,0,0,1,.33.55,1.93,1.93,0,0,1,.19.47l0,.14s0-.06,0-.12a1.17,1.17,0,0,1,.06.2h0a.82.82,0,0,1-.36,1,1.15,1.15,0,0,1-1.15,0,2.55,2.55,0,0,1-.77-.83c-.28-.4-.51-.84-.76-1.27a9,9,0,0,1-.7-1.43C109.29,339.3,109,338.29,109.77,338.24Z"/><path class="cls-12" d="M113.19,342.28h0v.08h0Z"/><path class="cls-12" d="M63.27,336.41c.3,0,.5.2.68.41s.31.38.45.58l.86,1.2c.27.39.52.79.78,1.19a7.87,7.87,0,0,1,.82,1.44,1.08,1.08,0,0,1-1,1.35,1.34,1.34,0,0,1-.89-.32c.36.28-.14-.11-.1-.07a.7.7,0,0,1-.19-.29c-.05-.14-.06-.14,0,0s-.14-.32-.16-.39a1.53,1.53,0,0,1,0-.3c-.08-.17-.15-.35-.23-.51-.23-.51-.46-1-.67-1.52s-.39-.92-.56-1.38S62.54,336.49,63.27,336.41Z"/><path class="cls-12" d="M58.12,338.19a1,1,0,0,1,.63.22,2.51,2.51,0,0,1,.58.45,10.59,10.59,0,0,1,.89,1c.32.39.64.78.94,1.2a4,4,0,0,1,.36.55,3.14,3.14,0,0,1,.18.37h0a1.71,1.71,0,0,1,.11.14l0,.08a.9.9,0,0,1,.1.39h0a.58.58,0,0,1,0,.23v-.05c0,.06,0,.12,0,.18a1,1,0,0,1-.69.57,1.42,1.42,0,0,1-1.31-.39,7.69,7.69,0,0,1-1.06-1.68,17.48,17.48,0,0,1-.79-1.7C57.89,339.43,57.51,338.26,58.12,338.19Z"/><path class="cls-13" d="M100.61,66.86c-.13-1.74-11.17-2.29-12.44-1.14-1.57,1.43.29,7.29,5.72,7.44C98.34,73.27,100.75,68.72,100.61,66.86Z"/><path class="cls-14" d="M88.34,69.79a6.55,6.55,0,0,1,3.73-1.48,9,9,0,0,1,6.58,2.79,6.26,6.26,0,0,1-4.76,2.06A6.35,6.35,0,0,1,88.34,69.79Z"/><path class="cls-15" d="M88,66a1.39,1.39,0,0,1,.21-.27c1.2-1.08,11-.66,12.3.85a3.63,3.63,0,0,1-2.88,1.14c-1.34,0-2.64-.52-4-.59-1.52-.07-3.13.37-4.51-.27A3.81,3.81,0,0,1,88,66Z"/><path class="cls-2" d="M100.86,50.84h0Z"/><path class="cls-2" d="M102.2,60.39a2.07,2.07,0,0,0,2.54-1.9,5.6,5.6,0,0,0-.07-2.08,3.52,3.52,0,0,0-.84-1.68,1.81,1.81,0,0,0-2.51,0,3.51,3.51,0,0,0-.94,2.25C100.26,58.33,100.68,60,102.2,60.39Z"/><path class="cls-2" d="M86.6,59.89A2.06,2.06,0,0,0,89.14,58a5.6,5.6,0,0,0-.07-2.08,3.51,3.51,0,0,0-.83-1.68,1.82,1.82,0,0,0-2.52,0,3.51,3.51,0,0,0-.94,2.25C84.66,57.83,85.08,59.51,86.6,59.89Z"/><path class="cls-2" d="M100.31,48.36a2.77,2.77,0,0,1,1-.61,3.86,3.86,0,0,1,.74-.2,4.38,4.38,0,0,1,1.94.11,3.18,3.18,0,0,1,1.49,1,2.7,2.7,0,0,1,.49.72c.06.15.13.3.18.45s0,.08,0,.11l0,.09a.54.54,0,0,1-.32.79.93.93,0,0,1-.81-.2l-.16-.13,0,0-.24-.15-.29-.18-.12-.05c-.22-.07-.42-.16-.63-.22l-.29-.07-.14,0h-.33a.86.86,0,0,1-.16,0h0l-.31.08-.09,0,0,0a5.65,5.65,0,0,1-.85.43,1.17,1.17,0,0,1-1.33-.54A1.26,1.26,0,0,1,100.31,48.36Z"/><path class="cls-2" d="M102.77,49.76c.09,0,.14,0,0,0Z"/><path class="cls-2" d="M86.78,49.26s0,0-.07,0h.07Z"/><path class="cls-2" d="M84.29,48.94a2.48,2.48,0,0,1,1.47-1.4,3.9,3.9,0,0,1,1.87-.37,3.69,3.69,0,0,1,1.74.53,2.05,2.05,0,0,1,.74.78,1.38,1.38,0,0,1,.18,1,.56.56,0,0,1-.51.39,1.05,1.05,0,0,1-.4-.07s-.22-.09-.08,0l-.12,0a3.2,3.2,0,0,1-.43-.17l-.15-.08c-.1-.06,0,0,0,0l-.42-.19h0l-.14,0a1.87,1.87,0,0,0-.34-.08h-.48l-.09,0a1.81,1.81,0,0,0-.31.09l0,0h0l0,0h0l-.28.16-.11.07h0l-.25.22a2.26,2.26,0,0,1-.59.37.92.92,0,0,1-.93-.25A1,1,0,0,1,84.29,48.94Z"/><path class="cls-10" d="M91.63,62.14a2.65,2.65,0,0,0,.93,1,3.08,3.08,0,0,0,2.47.45,2.67,2.67,0,0,0,1.88-1.49c.12-.33-.29-.56-.56-.43a4.07,4.07,0,0,1-1.09.48l-.16,0-.08,0h-.48l-.23-.05s-.36-.12-.17,0l-.25-.1a5.06,5.06,0,0,1-.44-.26h0l-.1-.08-.16-.16a2.56,2.56,0,0,0-.47-.46.77.77,0,0,0-1.09.19A1,1,0,0,0,91.63,62.14Z"/><path class="cls-15" d="M104.34,54.23a1.1,1.1,0,0,1,0,2.19A1.1,1.1,0,0,1,104.34,54.23Z"/><path class="cls-15" d="M88.37,53.73a1.1,1.1,0,0,1,0,2.19A1.1,1.1,0,0,1,88.37,53.73Z"/></g></svg>