<svg xmlns="http://www.w3.org/2000/svg" viewBox="0 0 163.7 351.88"><defs><style>.cls-1{fill:#012e58;}.cls-2{fill:#02213a;}.cls-3{fill:#fe7688;}.cls-4{fill:#ffa288;}.cls-5{fill:#638096;}.cls-6{fill:#4a697c;}.cls-7{fill:#7992a8;}.cls-8{fill:#94a6ba;}.cls-9{fill:#aabccc;}.cls-10{fill:#0d548e;}.cls-11{fill:#ff7a71;}.cls-12{fill:#fe596a;}.cls-13{fill:#fff;}</style></defs><g id="TEXTS"><path class="cls-1" d="M48.82,37.05S46.11,22.26,31,28.62s-6.83,29.25,4.45,26.23c0,0,9.22-8,9.22-8.9S48.82,37.05,48.82,37.05Z"/><path class="cls-2" d="M44.68,46c0-1,4.14-8.9,4.14-8.9s-.92-5-4.64-7.92a15.56,15.56,0,0,1-1.88,5.54,18.93,18.93,0,0,1-8.1,7.42,14.21,14.21,0,0,1-8.48,1.61,9.31,9.31,0,0,1-2.83-1c.75,7.21,6.17,13.83,12.57,12.12C35.46,54.85,44.68,46.9,44.68,46Z"/><path class="cls-1" d="M72.18,35.14s-14.94-9.7-29.72,2.22-17,47.69,9.06,52.3L74.88,86.8s15.58-5.25,13.51-28.61S72.18,35.14,72.18,35.14Z"/><path class="cls-2" d="M88.39,58.19c-.78-8.88-3.31-14.33-6.14-17.69A12.95,12.95,0,0,1,64.61,40a71.17,71.17,0,0,1-25.43,16.8c-2.28.87-5,1.57-7.18.9-2.07,13.86,3.13,29.07,19.52,32L74.88,86.8S90.46,81.55,88.39,58.19Z"/><path class="cls-3" d="M22.59,334.29c-2.31,1.7-4,9.91-2.07,12.71s22.78,2.38,26.39,2.23,4.17-12.47-11.76-13.67l-6.84-.34Z"/><path class="cls-4" d="M23.06,314.74c-.68,3.66-1.32,15.64-.47,19.55s10.85,4.23,12.56,1.27,3.08-16.07,3.33-18.92S23.06,314.74,23.06,314.74Z"/><path class="cls-3" d="M72.38,334.29c-2.31,1.7-4,9.91-2.07,12.71s22.78,2.38,26.39,2.23,4.17-12.47-11.77-13.67l-6.83-.34Z"/><path class="cls-4" d="M72.85,314.74c-.68,3.66-1.32,15.64-.47,19.55s10.85,4.23,12.55,1.27,3.09-16.07,3.34-18.92S72.85,314.74,72.85,314.74Z"/><path class="cls-1" d="M44.52,175.49s-14.14,49-17.48,74.23-6.45,62-5.56,68.51c0,0,11.44,4.45,18.28,2.23,0,0,21.77-66.44,30.2-97.6,0,0-1.43,77.25.79,95.69,0,0,9.38,4.61,18.12,1.11,0,0,17.8-94.89,7.79-144.8l-22.25-7.31Z"/><path class="cls-5" d="M134.89,62.56c1.51-.16,7.67-1.37,10.41-.8,1.51.32,9.3,3.9,10.65,14.79s-3.5,14.94-4,15.49-8.43,2-8.43,2L138,68.28Z"/><path class="cls-6" d="M128.45,71.3s.23-7.52,6.44-8.74c6.83-1.35,14.81,5.47,15.18,16.29.3,8.87-4.45,14.7-6.6,15.18A9.88,9.88,0,0,1,136,92.2c-2-1.35-4.13-14.46-4.13-14.46Z"/><path class="cls-5" d="M133.93,73.84a54.69,54.69,0,0,1,5.81-.32c3.49,0,4.53,7.48,1.9,8.11a41.81,41.81,0,0,1-7.71.8Z"/><path class="cls-4" d="M82.83,99.83c4.21.72,11.8.92,16.53,5.09,6,5.28,18.12,16.21,18.12,16.21s10.29-12.73,11-24.72c.16-2.78.72-6,.88-7.78s-2-17.57-2-17.57,5-1.43,6.91-1,5.65,3.57,6.68,6.91-.71,10.29-1,12-.4,22.26-4.54,36.09-6.27,13.07-8.26,14.82S121,141.8,118.72,141,91.3,126.22,91.3,126.22s-9.74,7.79-10,7.87-2.14-27.5-2.14-27.5Z"/><path class="cls-4" d="M40.07,101.42c-9.22,3.5-29.9,28.73-31.95,41.17-.07.47,4.93,7,5.41,7.31s10.81-.79,10.81-.79S34.67,133.53,37.85,130a16.36,16.36,0,0,1,1.27,3.66c.32,1.75,3,.95,3,.16s5.88-10.18,5.09-11.13S43.89,106.51,43.57,106,40.07,101.42,40.07,101.42Z"/><path class="cls-3" d="M43.89,100.15l-3.82,1.27s3.66,9.22,3.5,17.8a27.44,27.44,0,0,1-4.45,14.47s7.47,27.34,5.4,41.8c0,0,34.34,9.54,52.14-.63,0,0-5.09-18.76-4.13-26.71s4.77-10.33,2.54-20.82-14.15-13.51-12.24-27.5l-4.13-1-27.18,3.81Z"/><path class="cls-4" d="M53.74,87.27s0,5.89-1.27,8.59-8.58,4.29-8.58,4.29S48,120,63.76,118.91s14.94-20,14.94-20-5.25-1.91-7-3.66-1.9-9.38-1.9-9.38Z"/><path class="cls-5" d="M107.16,64.84c2.16-.61,9.37-2.23,12.76-1.55,0,0,8.62,3.35,10,14.67s-1.14,16.88-2.73,18.29-13.95,3-13.95,3Z"/><path class="cls-7" d="M107.16,64.84c-9.36,2.06-11.19,26.81,0,33s17.91-8.11,15.21-17.5S114.59,63.21,107.16,64.84Z"/><path class="cls-8" d="M105.84,71.34a20.53,20.53,0,0,1,3.91-.92,3.37,3.37,0,0,1,2.71.79,16.6,16.6,0,0,1,5.73,11.11c.63,7.21-1.9,9.22-3,10.51a2.5,2.5,0,0,1-1.59.83,31.82,31.82,0,0,1-4.44.32Z"/><path class="cls-9" d="M105.84,71.34c-6.15,1.35-7.35,17.61,0,21.64s11.77-5.32,10-11.49S110.72,70.27,105.84,71.34Z"/><path class="cls-4" d="M24.34,149.11s16.06,20.73,18,22.25c1.59,1.27,9-2.82,9.69-1.59s-1.25,4-3.17,3.82c0,0,6.51-.48,8.42-.8s1.7,2,.16,2.39-6.2,1.59-6.2,1.59,5.09.79,6.52.95,1.11,2.7-.64,2.7H50.4S55,182,56.13,182.49A1.39,1.39,0,0,1,55,185c-2.22-.48-7-1.59-7-1.59s3.82,2.23,4.61,3.34,1.11,2.54-1.27,1.91-7.47-4.14-10.17-4.93-19.71-13.35-25.75-19.87-9.38-13-7.32-21.3Z"/><path class="cls-7" d="M109.31,82.22v0C109.31,82.07,109.3,82.15,109.31,82.22Z"/><path class="cls-7" d="M109.39,82.91a4,4,0,0,0-.06-.5.77.77,0,0,0,0-.15v0c0-.1,0-.21,0-.31s0-.28-.08-.42a2.23,2.23,0,0,0-.2-1.24,2,2,0,0,0-1.62-1,1.8,1.8,0,0,0-1.65,1,4.09,4.09,0,0,0-.35,2.87,3.21,3.21,0,0,0,.71,1.4,2.07,2.07,0,0,0,1.55.72A1.8,1.8,0,0,0,109.3,84,2.82,2.82,0,0,0,109.39,82.91Z"/><path class="cls-2" d="M77.87,205.76a9.27,9.27,0,0,1-3.18.77,5.64,5.64,0,0,1-3.11-1c-.36-.25-.75.29-.46.58a5,5,0,0,0,2.36,1.3,10.91,10.91,0,0,0-.43,2c-.19,1-.39,1.94-.6,2.9-.44,2-.91,4-1.45,6s-1.09,3.8-1.72,5.68-1.55,3.67-1.62,5.54a.25.25,0,0,0,.42.17c1.19-1.41,1.68-3.48,2.25-5.2q1-2.92,1.75-5.89c.53-2,1-4,1.41-6,.19-1,.37-1.95.53-2.92a10.17,10.17,0,0,0,.27-2.12c.13,0,.26,0,.4,0a3.91,3.91,0,0,0,3.46-1.48A.25.25,0,0,0,77.87,205.76Z"/><path class="cls-10" d="M26,294.32q.3-5.83.75-11.66c.6-7.83,1.3-15.69,2.4-23.47a165.79,165.79,0,0,1,5.36-22.74c2.14-7.43,3.62-15,5.14-22.58.87-4.33,1.75-8.66,2.59-13s1.9-8.72,2.41-13.13c.05-.39-.57-.45-.68-.09-1.13,3.91-1.79,8-2.62,12s-1.57,7.69-2.34,11.53c-1.53,7.6-2.92,15.24-5,22.71s-4.44,14.89-5.66,22.62c-1.2,7.54-1.9,15.18-2.53,22.79q-.54,6.54-.91,13.1-.19,3.4-.34,6.81a47,47,0,0,0-.09,6.39,9.89,9.89,0,0,0-1.68-.52.25.25,0,0,0-.24.42,9.17,9.17,0,0,0,4.24,1.82,32.33,32.33,0,0,0,4.6.7c1.63.14,3.28.2,4.92.27s3.54-.11,5,.47c.53.21,1-.59.56-1a2.77,2.77,0,0,0-1.68-.52c-.87-.08-1.74-.12-2.61-.16C36,307,34.34,307,32.7,307a35.28,35.28,0,0,1-5-.5,20.7,20.7,0,0,1-2.32-.58,43.8,43.8,0,0,0,.35-5.25C25.8,298.53,25.9,296.42,26,294.32Z"/><path class="cls-10" d="M24.38,307.81c-.08-.38-.59-.31-.7,0a13,13,0,0,0-.4,3.29L23,314.58l-.12,1.64a3.58,3.58,0,0,0,0,1.53c.25.59,1.33.5,1.08-.21a.35.35,0,0,0-.05-.08,12.68,12.68,0,0,0,.13-1.82c.06-.87.11-1.74.16-2.61l.15-2.61A9.91,9.91,0,0,0,24.38,307.81Z"/><path class="cls-10" d="M27.81,309c-1,1.38-1.27,3.35-1.5,5a23.72,23.72,0,0,0-.24,2.65c0,.68-.19,1.8.43,2.25a.31.31,0,0,0,.38-.05c.5-.44.3-1.6.32-2.2,0-.86.08-1.73.17-2.59s.25-1.68.41-2.52a13.85,13.85,0,0,0,.34-2.47A.17.17,0,0,0,27.81,309Z"/><path class="cls-10" d="M30.46,310.47c0-.46-.74-.59-.83-.11-.24,1.27-.34,2.57-.48,3.86s-.28,2.61-.36,3.91c0,.66.88.7,1.08.15.1-.26.19-.51.28-.77a.28.28,0,0,0-.16-.33q.14-1.44.24-2.88C30.33,313,30.47,311.75,30.46,310.47Z"/><path class="cls-10" d="M33.59,310a38.26,38.26,0,0,0-1.22,4.88l-.53,2.41c-.13.62-.43,1.55.29,1.93a.56.56,0,0,0,.75-.2c.11-.21.23-.38.07-.61a.23.23,0,0,0-.12-.1,5.12,5.12,0,0,1,.1-.54c.07-.34.13-.67.19-1,.13-.76.27-1.52.4-2.27a33.15,33.15,0,0,0,.64-4.42C34.18,309.74,33.7,309.71,33.59,310Z"/><path class="cls-10" d="M37.05,309.46c0-.11-.17-.18-.23-.06a18.24,18.24,0,0,0-1.37,4.73c-.19.81-.38,1.62-.55,2.44a15.34,15.34,0,0,0-.44,2.51c0,.52.8.79,1,.28a1.79,1.79,0,0,1,.36-.46.26.26,0,0,0-.09-.41c.14-.56.23-1.14.33-1.7.15-.82.28-1.65.43-2.47A18.59,18.59,0,0,0,37.05,309.46Z"/><path class="cls-10" d="M40.44,310a23.36,23.36,0,0,0-1.77,4.41c-.26.76-.49,1.53-.71,2.3-.12.45-.59,1.75.06,2s.92-1,1-1.44c.21-.77.42-1.55.64-2.32.43-1.57,1-3.1,1.34-4.7A.32.32,0,0,0,40.44,310Z"/><path class="cls-10" d="M85.87,307a46,46,0,0,1-5.25.4,50.75,50.75,0,0,1-5.08-.2c-.68-.06-1.35-.15-2-.23a51,51,0,0,0,.55-7.91l.42-8.37c.28-5.5.56-11,.81-16.49a291.91,291.91,0,0,0-.12-32.94A173.28,173.28,0,0,0,73.5,223.2c-.06-.33-.58-.25-.58.07,0,5.43.79,10.89,1.16,16.3s.65,10.88.7,16.33c.11,10.79-.82,21.58-1.38,32.35q-.25,4.67-.49,9.35c-.08,1.48-.15,2.95-.23,4.43a31.21,31.21,0,0,0-.12,4.83,1.64,1.64,0,0,0-1.31.26s0,.07,0,.1a2.79,2.79,0,0,0,1.56.56c.76.14,1.51.27,2.27.38a39.77,39.77,0,0,0,4.23.36,37.88,37.88,0,0,0,8.83-.62.61.61,0,0,0,.42-.42C89,306.21,86.33,307,85.87,307Z"/><path class="cls-10" d="M73.47,317.57c0-.62-.17-1.26-.22-1.86-.07-.76-.11-1.52-.11-2.29,0-1.53.15-3,.25-4.57,0-.44-.64-.51-.75-.1a17.34,17.34,0,0,0-.58,4.76c0,.79,0,1.59.11,2.38a6.78,6.78,0,0,0,.43,2.33.47.47,0,0,0,.85-.11c0-.1.06-.21.1-.31A.21.21,0,0,0,73.47,317.57Z"/><path class="cls-10" d="M77.08,317.72c0-.53-.06-1.08-.08-1.61,0-.74,0-1.48,0-2.22.06-1.53.33-3,.44-4.56,0-.36-.48-.36-.59-.08a15.07,15.07,0,0,0-.89,4.56,22.1,22.1,0,0,0-.08,2.3,6.78,6.78,0,0,0,.28,2.34.47.47,0,0,0,.85.11c.11-.18.18-.37.29-.54A.2.2,0,0,0,77.08,317.72Z"/><path class="cls-10" d="M80.19,313.66c.06-.72.16-1.43.26-2.15s.36-1.39.08-2a.17.17,0,0,0-.23,0c-.52.37-.6,1.16-.75,1.74a17.78,17.78,0,0,0-.38,2.28,22.81,22.81,0,0,0-.1,4.6.54.54,0,0,0,1.08,0h0c0-.17,0-.34,0-.51l.06-.32a.21.21,0,0,0-.08-.22A32,32,0,0,1,80.19,313.66Z"/><path class="cls-10" d="M83.45,313.39c0-.81.09-1.61.1-2.41a4.27,4.27,0,0,0-.21-2.28.11.11,0,0,0-.2,0,4.87,4.87,0,0,0-.52,2.46c-.1.87-.16,1.73-.23,2.6s-.15,1.69-.2,2.53a2.93,2.93,0,0,0,.51,2.16c.39.43,1,0,.85-.51h0A12.63,12.63,0,0,1,83.45,313.39Z"/><path class="cls-10" d="M85.92,309.54a.13.13,0,0,0-.24,0,5.21,5.21,0,0,0-.46,2c-.1.77-.17,1.54-.24,2.31-.14,1.52-.27,3-.39,4.55,0,.69.89.68,1.11.15a1.85,1.85,0,0,0,.08-1.09c.08-1.17.15-2.35.21-3.52,0-.75.09-1.49.1-2.23A5.31,5.31,0,0,0,85.92,309.54Z"/><path class="cls-10" d="M88.6,309.54a.08.08,0,0,0-.13,0,1.83,1.83,0,0,0-.35.76c-.1.34-.18.71-.25,1.06-.15.69-.26,1.39-.38,2.09s-.22,1.4-.33,2.1c0,.36-.11.72-.16,1.09,0,.16,0,.31,0,.47s0,.08,0,.12a.51.51,0,0,0,.37.83c1,.07.91-1.66,1-2.28.12-1.07.24-2.14.33-3.21,0-.52.08-1,.1-1.56A3,3,0,0,0,88.6,309.54Z"/><path class="cls-11" d="M70.8,93.45a34.75,34.75,0,0,1-1-7.61L53.74,87.27s0,5.89-1.27,8.59a3.77,3.77,0,0,1-1.08,1.25h0a4.08,4.08,0,0,0,2.17.37A47.44,47.44,0,0,0,64,96.56,17.81,17.81,0,0,0,70.8,93.45Z"/><path class="cls-4" d="M41.5,68.68s-5.88-.8-5.4,5.08S43.25,79,43.25,79,49,95.06,65,93.63,82.32,70.09,81.72,61.37c-.32-4.61-7.79-11.45-10-13.67,0,0-4.13,5.4-13.51,7.62S41.82,65.66,41.5,68.68Z"/><path class="cls-11" d="M41.47,73.11a2.54,2.54,0,0,0-2-1.18,2,2,0,0,0-1.15.33,1.9,1.9,0,0,0-.42.38.68.68,0,0,0-.14.31.45.45,0,0,0,0,.2.37.37,0,0,0,.08.15s0,0,0,0a.12.12,0,0,0,.18.07h0a.38.38,0,0,0,.23,0l.06,0s-.06,0,.08,0l.06,0,0,0a.65.65,0,0,1,.16-.09l.08,0L39,73h.52l.3.07h0l0,0,0,0h0l.14.08.08.06h0l.16.15.11.13.06.09a2.43,2.43,0,0,1,.2.35l0,.06a1.48,1.48,0,0,0-.74,2.06,1.16,1.16,0,0,0,1.57.4,1.58,1.58,0,0,0,.63-1A3.36,3.36,0,0,0,41.47,73.11Z"/><path class="cls-11" d="M39.79,73.12h0Z"/><path class="cls-11" d="M71.7,47.7s-4.13,5.4-13.51,7.62c-9,2.13-15.72,9.61-16.59,12.91a26.75,26.75,0,0,1,5.14-5.11c4.77-3.31,11-3.43,16.32-5.85,3.11-1.42,6.15-3.71,9.56-3.32a10.91,10.91,0,0,1,5.53,2.8,33.21,33.21,0,0,1,3.22,3.06C79.84,55.34,73.69,49.68,71.7,47.7Z"/><path class="cls-3" d="M88.45,48.57c-1.07-2.52-4.32-2.7-6.32-3.13a60.43,60.43,0,0,0-6.08-.95,55,55,0,0,0-11.62,0,57.35,57.35,0,0,0-22.71,7.2,45.35,45.35,0,0,0-6,4.2c-1.81,1.46-4,3-5.27,5.19-.88,1.51.05,3.84,1.64,3.25,1.82-.67,3.46-2.15,5.14-3.24A51.49,51.49,0,0,1,42,58.36a79,79,0,0,1,10.55-4.7,49.84,49.84,0,0,1,21.83-2.21,47.6,47.6,0,0,1,5.86,1.11c1,.25,2,.53,3,.85,1.53.48,2.93,1.18,4.38,0A4.16,4.16,0,0,0,88.45,48.57Z"/><path class="cls-11" d="M39.1,131.35c-.15-.41-.28-.83-.41-1.24a1.35,1.35,0,0,0,.15-.26,2.74,2.74,0,0,0,.15-.4c.07-.21.15-.43.24-.64v0l0-.08.07-.16a2.39,2.39,0,0,0,.15-.37c.08-.22.24-.58-.08-.68s-.45.2-.59.38a3.22,3.22,0,0,0-.39.64l-.14.3-.18-.6a5.73,5.73,0,0,0-.51-1.58.11.11,0,0,0-.2,0,4,4,0,0,0,.06,1.61c.09.58.2,1.16.33,1.73a16.16,16.16,0,0,0,.49,1.68c.08.26.17.52.26.78a1.16,1.16,0,0,0,.47.74.38.38,0,0,0,.54-.22,1.14,1.14,0,0,0-.15-.82C39.3,131.9,39.2,131.62,39.1,131.35Z"/><path class="cls-11" d="M26.12,151.28c-.52-.63-1-1.28-1.53-1.93l-1.41-1.91a9.12,9.12,0,0,0-1.5-1.88.1.1,0,0,0-.17.09,6.47,6.47,0,0,0,1,2.1c.44.71.9,1.4,1.39,2.07s1,1.29,1.47,1.91a5.37,5.37,0,0,0,1.72,1.7c.18.08.44-.06.36-.28A6,6,0,0,0,26.12,151.28Z"/><path class="cls-11" d="M121.06,115.81a4.69,4.69,0,0,0-1,1c-.3.41-.57.86-.85,1.28-.48.74-1,1.48-1.47,2.2a25.25,25.25,0,0,1-1.57,2,20.14,20.14,0,0,0-1.69,1.9c-.06.09,0,.19.13.17A4.7,4.7,0,0,0,116.7,123a15.88,15.88,0,0,0,1.74-2c.52-.7,1-1.42,1.49-2.15.3-.45.6-.89.89-1.34a4.44,4.44,0,0,0,.6-1.42C121.47,115.9,121.24,115.67,121.06,115.81Z"/><path class="cls-11" d="M133.52,74.35a9.65,9.65,0,0,0-.84-1.47,8.53,8.53,0,0,0-1.08-1.32,6.35,6.35,0,0,0-1.37-1.11.41.41,0,0,0-.5.65c.36.4.76.75,1.11,1.16a13.82,13.82,0,0,1,.93,1.24,10.28,10.28,0,0,1,.76,1.38c.22.49.33,1.17.89,1.39a.38.38,0,0,0,.42-.18C134.19,75.59,133.74,74.82,133.52,74.35Z"/><path class="cls-11" d="M137.25,74.35c-.14-.3-.3-.59-.46-.88a9.81,9.81,0,0,0-1.11-1.61,7.35,7.35,0,0,0-1.29-1.2,3.72,3.72,0,0,0-.76-.41c-.25-.11-.64-.26-.89-.09a.33.33,0,0,0-.13.33c.06.25.36.41.56.53a7.59,7.59,0,0,1,.65.46,6.25,6.25,0,0,1,1.12,1.12,10.57,10.57,0,0,1,.94,1.45c.16.26.29.53.44.79a2.25,2.25,0,0,0,.64.7.28.28,0,0,0,.47-.2A2.39,2.39,0,0,0,137.25,74.35Z"/><path class="cls-11" d="M52.27,170.24a.14.14,0,0,0-.25,0,4,4,0,0,1-1.56,2.51,5.59,5.59,0,0,1-1.27.75,12.54,12.54,0,0,1-1.48.43.22.22,0,0,0,.06.42,3.84,3.84,0,0,0,1.66-.38,5.94,5.94,0,0,0,1.48-.87,4.92,4.92,0,0,0,1.16-1.25,2.53,2.53,0,0,0,.32-.8A1.43,1.43,0,0,0,52.27,170.24Z"/><path class="cls-11" d="M58.59,174.32a1.37,1.37,0,0,0-.9.21c-.36.16-.73.3-1.09.44-.71.28-1.42.53-2.14.76s-1.46.42-2.19.59-1.54.29-2.29.51a.19.19,0,0,0,.05.38,17.92,17.92,0,0,0,4.58-.93c.75-.23,1.49-.48,2.22-.76l1-.43c.31-.13.68-.23.84-.56A.15.15,0,0,0,58.59,174.32Z"/><path class="cls-11" d="M58.21,179.68a4.41,4.41,0,0,0-1.08.22,8.74,8.74,0,0,1-1.12.19,16.5,16.5,0,0,1-2.22.1c-.75,0-1.5,0-2.25,0a4.24,4.24,0,0,0-2,.28.06.06,0,0,0,0,.1,8.26,8.26,0,0,0,2.17.09c.8,0,1.6.05,2.4.06a15.21,15.21,0,0,0,2.24-.11,3.67,3.67,0,0,0,2-.64A.16.16,0,0,0,58.21,179.68Z"/><path class="cls-11" d="M56.46,184.77a2.72,2.72,0,0,0-1-.2c-.45,0-.89-.1-1.34-.16-.77-.12-1.53-.27-2.28-.46l-2.33-.56a12,12,0,0,0-2.36-.44.09.09,0,0,0-.05.16,12.14,12.14,0,0,0,2.28.74l2.4.64c.78.2,1.57.37,2.37.5a5.06,5.06,0,0,0,2.25.12A.19.19,0,0,0,56.46,184.77Z"/><path class="cls-11" d="M52.68,188.53c-.38,0-.74.1-1.13.05a4.42,4.42,0,0,1-1.17-.42c-.71-.35-1.37-.78-2.06-1.16s-1.45-.77-2.18-1.14A6.64,6.64,0,0,0,44,185a0,0,0,0,0,0,.07,10,10,0,0,0,2.28,1.29q1.28.66,2.49,1.41a11.27,11.27,0,0,0,2.21,1.2c.57.19,1.49.36,1.9-.22C52.89,188.66,52.79,188.54,52.68,188.53Z"/><path class="cls-12" d="M70,115.13a.12.12,0,0,0,0,.24A.12.12,0,0,0,70,115.13Z"/><path class="cls-12" d="M43.12,109.64c-.32-1.36-.7-2.71-1.12-4a15.63,15.63,0,0,0-1.51-4,.31.31,0,0,0-.58.16,14.53,14.53,0,0,0,.84,3.47c.38,1.35.75,2.7,1.07,4.06A36.89,36.89,0,0,1,43,117.56a25.43,25.43,0,0,1-1.2,7.89,42,42,0,0,1-1.54,4.1c-.5,1.15-1.15,2.26-1.55,3.45-.2.62.68.93,1,.43A29.83,29.83,0,0,0,42.89,126a26.38,26.38,0,0,0,1.33-8.21A35.55,35.55,0,0,0,43.12,109.64Z"/><path class="cls-12" d="M79.3,99.21c0-.63-1-.87-1.18-.16-.76,4-.54,8-2.5,11.65a14.5,14.5,0,0,1-7.44,6.49c-6.6,2.63-13.89,0-18.44-5.2a22.09,22.09,0,0,1-3.34-5.29c-.95-2.06-1.43-4.38-2.55-6.35a.25.25,0,0,0-.46.13,22.12,22.12,0,0,0,1.88,6.22,22.25,22.25,0,0,0,3,5.27,20,20,0,0,0,8.61,6.46c6.71,2.6,15,.58,19.24-5.39a15.8,15.8,0,0,0,2.45-6.21A28.4,28.4,0,0,0,79.3,99.21Z"/><path class="cls-12" d="M86.23,113.15c-.53-1.05-1.34-1.91-1.84-3a12.93,12.93,0,0,1-1-3.39,22.35,22.35,0,0,1-.3-3.84c0-.64,0-1.28,0-1.92,0-.45.15-.84-.18-1.2a.1.1,0,0,0-.07,0c-.48.13-.54.54-.62,1a12.65,12.65,0,0,0-.15,2,24.06,24.06,0,0,0,.3,4.24,13.6,13.6,0,0,0,1.12,3.64,5.69,5.69,0,0,0,2.35,2.86A.3.3,0,0,0,86.23,113.15Z"/><path class="cls-12" d="M71.43,144a4.8,4.8,0,0,0-2.52.86,10.17,10.17,0,0,1-2.72,1.08,15,15,0,0,1-6.29.2,14.82,14.82,0,0,1-5.63-2.51,15.25,15.25,0,0,1-2.37-2c-.51-.53-1-1.61-1.82-1.62a.23.23,0,0,0-.22.16c-.29.81.74,1.71,1.22,2.28a17.5,17.5,0,0,0,2.51,2.36,19,19,0,0,0,6.33,3.11,13.54,13.54,0,0,0,7.06.28c1.86-.45,4.84-1.46,4.86-3.77A.43.43,0,0,0,71.43,144Z"/><path class="cls-12" d="M91.59,145.1a.37.37,0,0,0-.45-.25,2.26,2.26,0,0,0-.57.09c-.19.08-.35.17-.54.23a5.93,5.93,0,0,1-1.39.16,12.13,12.13,0,0,1-3.18-.24A11.36,11.36,0,0,1,82.52,144c-.46-.24-.91-.51-1.34-.79a9,9,0,0,0-1.35-.89.31.31,0,0,0-.42.41,6.73,6.73,0,0,0,2.76,2.41,13,13,0,0,0,3.46,1.38,11.48,11.48,0,0,0,3.74.32C90.27,146.78,92.1,146.42,91.59,145.1Z"/><path class="cls-12" d="M96.13,175.19c-1.21-.3-2.75.6-3.9.95-1.51.46-3,.87-4.57,1.22a67.72,67.72,0,0,1-9.6,1.5,70.92,70.92,0,0,1-9.22.16c-3.22-.15-6.38-.86-9.58-1-.34,0-.36.45-.08.56,2.91,1.09,6.35,1.32,9.44,1.56A64.53,64.53,0,0,0,88,178.65c1.53-.35,3.06-.76,4.56-1.22,1.2-.37,3-.61,3.77-1.68A.38.38,0,0,0,96.13,175.19Z"/><path class="cls-2" d="M56.44,61a5.28,5.28,0,0,0-2.5.11A4.33,4.33,0,0,0,50.86,64a.41.41,0,0,0,.29.5c.65.14,1-.53,1.46-.87a5.48,5.48,0,0,1,1.57-.86,4.16,4.16,0,0,1,1.75-.14,4.92,4.92,0,0,1,1,.27,1.42,1.42,0,0,0,1.16,0,.53.53,0,0,0,.26-.46C58.26,61.46,57.25,61.15,56.44,61Z"/><path class="cls-2" d="M75.28,61v0a.7.7,0,0,0-.25-.36,3.71,3.71,0,0,0-1.74-1,5.18,5.18,0,0,0-2.07-.18,5.47,5.47,0,0,0-2,.65c-.54.31-1.32.86-1.31,1.56a.42.42,0,0,0,.42.42,4.29,4.29,0,0,0,1.5-.74,3.62,3.62,0,0,1,1.44-.41,3.89,3.89,0,0,1,1.55.22c.55.19,1,.6,1.57.79A.74.74,0,0,0,75.28,61Z"/><path class="cls-2" d="M55.53,67.09c-2.71,0-2.69,5-.72,6a1.75,1.75,0,0,0,1,.17.93.93,0,0,0,.8-.37,1,1,0,0,0,.13-.09,2.56,2.56,0,0,0,.59-1.07,6.12,6.12,0,0,0,.3-1.85C57.69,68.61,57,67.06,55.53,67.09Z"/><path class="cls-2" d="M71.15,66c-2.72,0-2.7,4.95-.72,6a1.73,1.73,0,0,0,1,.18,1,1,0,0,0,.81-.37.54.54,0,0,0,.12-.09,2.47,2.47,0,0,0,.6-1.07,6.11,6.11,0,0,0,.29-1.85C73.31,67.53,72.61,66,71.15,66Z"/><path class="cls-11" d="M65.27,73.19c-.26.12-.33.3-.51.48a1.8,1.8,0,0,1-.2.19l-.17.13-.27.16-.12.06,0,0h0a2.52,2.52,0,0,1-.55.15,2.91,2.91,0,0,1-1.13-.08c-.4-.12-.76-.36-1.16-.45a.29.29,0,0,0-.35.35,1.76,1.76,0,0,0,1.09,1.09,3.22,3.22,0,0,0,1.67.31A3.59,3.59,0,0,0,65,75.08c.46-.3,1.09-.79,1.12-1.38A.59.59,0,0,0,65.27,73.19Z"/><path class="cls-12" d="M58.51,79.49c.11-1.46,9.31-1.92,10.37-1,1.31,1.19-.24,6.08-4.77,6.2C60.4,84.83,58.39,81,58.51,79.49Z"/><path class="cls-3" d="M68.75,81.92a5.56,5.56,0,0,0-3.11-1.23A7.49,7.49,0,0,0,60.15,83a5.18,5.18,0,0,0,4,1.71A5.31,5.31,0,0,0,68.75,81.92Z"/><path class="cls-13" d="M69.06,78.76a1,1,0,0,0-.18-.23c-1-.9-9.18-.55-10.25.71a3,3,0,0,0,2.4,1c1.12,0,2.21-.43,3.33-.49s2.61.3,3.76-.23A3.11,3.11,0,0,0,69.06,78.76Z"/><path class="cls-3" d="M54.7,76c0,1.32-1.55,2.38-3.46,2.38S47.78,77.35,47.78,76s1.55-2.39,3.46-2.39S54.7,74.71,54.7,76Z"/><ellipse class="cls-3" cx="76.04" cy="74.36" rx="3.46" ry="2.38"/><path class="cls-13" d="M55.34,67.83a1.05,1.05,0,0,0-.3-.52l-.24-.18a1.11,1.11,0,0,0-.59-.16.79.79,0,0,0-.45.1.82.82,0,0,0-.38.24.88.88,0,0,0-.24.38.87.87,0,0,0-.1.45l0,.31a1.29,1.29,0,0,0,.3.52l.24.18a1.21,1.21,0,0,0,.59.16,1,1,0,0,0,.45-.1A1,1,0,0,0,55,69a.82.82,0,0,0,.24-.38.79.79,0,0,0,.1-.45Z"/><path class="cls-13" d="M70.77,66.52h0a.75.75,0,0,0-.17-.33.81.81,0,0,0-.27-.25h0a1,1,0,0,0-1,0h0l-.2.16-.15.2h0l0,0-.1.23a.78.78,0,0,0,0,.4.54.54,0,0,0,.06.25.72.72,0,0,0,.21.31l.2.16.23.1a.91.91,0,0,0,.4,0,.77.77,0,0,0,.36-.12.89.89,0,0,0,.24-.18,1.1,1.1,0,0,0,.26-.44A1.19,1.19,0,0,0,70.77,66.52Z"/><path class="cls-3" d="M51.31,67.94h0l.08,0Z"/><path class="cls-3" d="M51.27,67.92l0,0h0Z"/><path class="cls-3" d="M52,68.3a.59.59,0,0,0-.18-.17,1.57,1.57,0,0,0-.23-.09l-.23-.1a.24.24,0,0,0-.12,0l-.1,0h-.18a.4.4,0,0,0-.24.07.37.37,0,0,0-.19.43l.06.14a.44.44,0,0,0,.13.14l.07,0a.94.94,0,0,0,.12.09.61.61,0,0,0,.14.07l.18.07.17.06a.36.36,0,0,0,.2,0h.1a.55.55,0,0,0,.22-.06.37.37,0,0,0,.17-.2.46.46,0,0,0,0-.23A.37.37,0,0,0,52,68.3Z"/><path class="cls-3" d="M51.25,66.88l0-.07h0Z"/><path class="cls-3" d="M52.33,66.59l0,0-.05-.06a.2.2,0,0,0-.09-.09s0,0-.07-.05l-.1,0-.15-.07h-.1a.41.41,0,0,0-.19,0,.39.39,0,0,0-.17.06.54.54,0,0,0-.15.15.36.36,0,0,0-.05.21.43.43,0,0,0,0,.17,1,1,0,0,0,.13.23.2.2,0,0,1,.07.06l.07.06a.31.31,0,0,0,.11.09h0l0,0,.08,0,0,0h0l.11,0h.24a.27.27,0,0,0,.24-.14l.06-.13v0h0a.69.69,0,0,0,0-.13A.7.7,0,0,0,52.33,66.59Z"/><path class="cls-3" d="M51.22,66.81h0v0Z"/><path class="cls-3" d="M73.72,64.37l0-.12a.4.4,0,0,0-.13-.13.3.3,0,0,0-.11-.07.37.37,0,0,0-.18,0l-.13,0a.42.42,0,0,0-.22.13l-.12.1s-.07.1-.11.15l0,.06-.09.12,0,.08a.47.47,0,0,0,0,.09s0,0,0,.07a.45.45,0,0,0,0,.23.42.42,0,0,0,.11.18.4.4,0,0,0,.41.11H73l.09,0a.39.39,0,0,0,.16-.1h0a1.14,1.14,0,0,1,.11-.11l.11-.11a1.88,1.88,0,0,0,.16-.23.35.35,0,0,0,0-.18A.31.31,0,0,0,73.72,64.37Z"/><path class="cls-3" d="M74.87,65.92a.51.51,0,0,0-.2-.26.47.47,0,0,0-.33,0,2,2,0,0,0-.26.09l-.15.09-.14.09a.4.4,0,0,0-.18.32.38.38,0,0,0,.08.23.39.39,0,0,0,.32.13l.15,0h.07l.18,0,.15-.07a.35.35,0,0,0,.15-.07.25.25,0,0,0,.11-.12A.45.45,0,0,0,74.87,65.92Z"/></g></svg>